<svg width="1885" height="246" viewBox="0 0 1885 246" fill="none" xmlns="http://www.w3.org/2000/svg">
<path d="M89.5 233.5V241H0.1V233.5L30.4 224.5V46L0.1 37V29.5H89.5V37L59.2 46.3V124H171.1V46.3L140.8 37V29.5H230.2V37L199.9 46.3V224.2L230.2 233.5V241H140.8V233.5L171.1 224.2V135.4H59.2V224.2L89.5 233.5ZM319.15 245.2C275.65 245.2 245.05 212.2 245.05 169.9C245.05 127.6 275.65 94.9 319.15 94.9C362.65 94.9 392.95 127.6 392.95 169.9C392.95 212.2 362.65 245.2 319.15 245.2ZM320.05 234.1C346.75 234.1 363.55 208.6 363.55 172.9C363.55 134.5 345.25 106 317.95 106C291.55 106 274.45 131.2 274.45 167.5C274.45 205.3 292.75 234.1 320.05 234.1ZM528.365 145C528.365 122.8 518.165 113.2 496.565 113.2C485.765 113.2 475.265 115 461.165 119.5V225.1L483.665 233.5V241H411.665V233.5L434.765 225.4V124.6L411.365 114.7V109.9L456.965 95.5H461.165V114.1C479.165 103.3 497.165 94.9 514.265 94.9C537.365 94.9 555.065 106.6 555.065 137.5V225.4L578.165 233.5V241H505.865V233.5L528.365 225.4V145ZM593.891 241V233.5L616.691 225.7V30.1L593.591 20.2V15.4L639.191 0.699982H643.091V225.4L666.191 233.5V241H593.891ZM719.291 241L650.291 165.1V160.3L708.191 114.4L684.191 106.6V99.1H751.391V106.6L725.591 113.8L673.991 154.6L751.691 236.5V241H719.291ZM837.998 245.2C794.498 245.2 763.898 212.2 763.898 169.9C763.898 127.6 794.498 94.9 837.998 94.9C881.498 94.9 911.798 127.6 911.798 169.9C911.798 212.2 881.498 245.2 837.998 245.2ZM838.898 234.1C865.598 234.1 882.398 208.6 882.398 172.9C882.398 134.5 864.098 106 836.798 106C810.398 106 793.298 131.2 793.298 167.5C793.298 205.3 811.598 234.1 838.898 234.1ZM1047.21 145C1047.21 122.8 1037.01 113.2 1015.41 113.2C1004.61 113.2 994.113 115 980.013 119.5V225.1L1002.51 233.5V241H930.513V233.5L953.613 225.4V124.6L930.213 114.7V109.9L975.813 95.5H980.013V114.1C998.013 103.3 1016.01 94.9 1033.11 94.9C1056.21 94.9 1073.91 106.6 1073.91 137.5V225.4L1097.01 233.5V241H1024.71V233.5L1047.21 225.4V145ZM1186.63 245.2C1143.13 245.2 1112.53 212.2 1112.53 169.9C1112.53 127.6 1143.13 94.9 1186.63 94.9C1230.13 94.9 1260.43 127.6 1260.43 169.9C1260.43 212.2 1230.13 245.2 1186.63 245.2ZM1187.53 234.1C1214.23 234.1 1231.03 208.6 1231.03 172.9C1231.03 134.5 1212.73 106 1185.43 106C1159.03 106 1141.93 131.2 1141.93 167.5C1141.93 205.3 1160.23 234.1 1187.53 234.1ZM1479.85 144.1C1479.85 121.9 1470.55 112.6 1451.05 112.6C1440.85 112.6 1430.65 114.4 1415.05 119.2C1416.55 124 1417.45 130 1417.45 136.6V225.1L1439.65 233.5V241H1368.55V233.5L1391.05 225.1V144.1C1391.05 121.9 1381.45 112.6 1362.25 112.6C1352.35 112.6 1341.85 114.1 1328.65 118.9V225.4L1350.85 233.5V241H1279.15V233.5L1302.25 225.4V124.6L1278.85 114.7V109.9L1324.45 95.5H1328.65V113.5C1345.75 103.3 1363.75 94.9 1379.35 94.9C1394.65 94.9 1407.25 100.6 1413.25 114.4C1433.35 103.3 1451.65 94.9 1468.15 94.9C1490.05 94.9 1506.25 106.6 1506.25 136.6V225.4L1529.35 233.5V241H1457.35V233.5L1479.85 225.1V144.1ZM1617.47 233.5V241H1544.87V233.5L1567.97 225.4V124.6L1544.57 114.7V109.9L1590.17 95.5H1594.37V225.4L1617.47 233.5ZM1579.07 70.3L1558.37 49.6V45.4L1579.07 24.7H1583.27L1603.97 45.4V49.6L1583.27 70.3H1579.07ZM1705.4 245.2C1663.7 245.2 1634.6 215.2 1634.6 172C1634.6 128.2 1666.1 94.9 1711.4 94.9C1721.3 94.9 1731.5 96.4 1739.3 99.4L1748 92.2H1753.7V152.5H1746.8L1726.7 106.9C1722.2 106.3 1718 105.7 1713.8 105.7C1681.4 105.7 1661.9 127.6 1661.9 163.3C1661.9 200.5 1684.7 225.4 1719.5 225.4C1731.8 225.4 1746.2 222.4 1758.5 217.6V225.1C1744.7 236.5 1727.6 245.2 1705.4 245.2ZM1830.03 245.2C1818.93 245.2 1800.33 242.5 1787.43 238L1780.53 188.2H1787.13L1814.43 233.2C1819.53 234.1 1824.93 234.7 1829.43 234.7C1848.93 234.7 1860.93 224.2 1860.93 207.7C1860.93 194.5 1852.23 188.8 1839.93 184L1816.53 173.8C1799.13 166.6 1787.73 155.8 1787.73 138.1C1787.73 114.1 1808.73 94.9 1838.73 94.9C1847.43 94.9 1857.03 96.4 1866.03 99.4L1873.53 92.2H1879.23V143.2H1872.33L1854.93 107.5C1849.53 106 1844.13 105.4 1838.73 105.4C1820.73 105.4 1810.53 115.6 1810.53 128.8C1810.53 139.3 1817.13 145.9 1828.53 150.4L1852.83 161.2C1869.93 168.1 1884.63 176.8 1884.63 198.1C1884.63 225.1 1861.23 245.2 1830.03 245.2Z" fill="black"/>
</svg>
